<svg xmlns="http://www.w3.org/2000/svg" width="3420" height="1720" viewBox="0 0 3420 1720" style="background-color:white">
<style>
text.label { font-size: 24px; fill: black; font-family: sans-serif; }
text.stroke-num { font-size: 14px; fill: gray; font-family: sans-serif; }
</style>
<rect x="20" y="20" width="320" height="320" fill="none" stroke="#eee" />
<text x="25" y="335" class="label">あ</text>
<polyline points="74,78 269,88" fill="none" stroke="red" stroke-width="3" stroke-linecap="round" stroke-linejoin="round" />
<text x="69" y="73" class="stroke-num">1</text>
<circle cx="74" cy="78" r="3" fill="red" />
<polyline points="167,30 165,221 202,272" fill="none" stroke="green" stroke-width="3" stroke-linecap="round" stroke-linejoin="round" />
<text x="162" y="25" class="stroke-num">2</text>
<circle cx="167" cy="30" r="3" fill="green" />
<polyline points="244,123 169,250 102,260 73,224 106,169 202,159 260,192 268,244 248,270" fill="none" stroke="blue" stroke-width="3" stroke-linecap="round" stroke-linejoin="round" />
<text x="239" y="118" class="stroke-num">3</text>
<circle cx="244" cy="123" r="3" fill="blue" />
<rect x="360" y="20" width="320" height="320" fill="none" stroke="#eee" />
<text x="365" y="335" class="label">い</text>
<polyline points="416,83 403,233 427,279 454,263" fill="none" stroke="red" stroke-width="3" stroke-linecap="round" stroke-linejoin="round" />
<text x="411" y="78" class="stroke-num">1</text>
<circle cx="416" cy="83" r="3" fill="red" />
<polyline points="573,86 591,191 568,237" fill="none" stroke="green" stroke-width="3" stroke-linecap="round" stroke-linejoin="round" />
<text x="568" y="81" class="stroke-num">2</text>
<circle cx="573" cy="86" r="3" fill="green" />
<rect x="700" y="20" width="320" height="320" fill="none" stroke="#eee" />
<text x="705" y="335" class="label">う</text>
<polyline points="802,55 887,65" fill="none" stroke="red" stroke-width="3" stroke-linecap="round" stroke-linejoin="round" />
<text x="797" y="50" class="stroke-num">1</text>
<circle cx="802" cy="55" r="3" fill="red" />
<polyline points="773,141 867,125 906,159 898,231 835,295" fill="none" stroke="green" stroke-width="3" stroke-linecap="round" stroke-linejoin="round" />
<text x="768" y="136" class="stroke-num">2</text>
<circle cx="773" cy="141" r="3" fill="green" />
<rect x="1040" y="20" width="320" height="320" fill="none" stroke="#eee" />
<text x="1045" y="335" class="label">え</text>
<polyline points="1180,39 1202,58" fill="none" stroke="red" stroke-width="3" stroke-linecap="round" stroke-linejoin="round" />
<text x="1175" y="34" class="stroke-num">1</text>
<circle cx="1180" cy="39" r="3" fill="red" />
<polyline points="1102,125 1248,120 1091,283 1168,225 1228,288 1300,272" fill="none" stroke="green" stroke-width="3" stroke-linecap="round" stroke-linejoin="round" />
<text x="1097" y="120" class="stroke-num">2</text>
<circle cx="1102" cy="125" r="3" fill="green" />
<rect x="1380" y="20" width="320" height="320" fill="none" stroke="#eee" />
<text x="1385" y="335" class="label">お</text>
<polyline points="1444,114 1620,118" fill="none" stroke="red" stroke-width="3" stroke-linecap="round" stroke-linejoin="round" />
<text x="1439" y="109" class="stroke-num">1</text>
<circle cx="1444" cy="114" r="3" fill="red" />
<polyline points="1528,55 1539,149 1520,219 1485,267 1444,248 1481,181 1572,181 1602,243 1569,277" fill="none" stroke="green" stroke-width="3" stroke-linecap="round" stroke-linejoin="round" />
<text x="1523" y="50" class="stroke-num">2</text>
<circle cx="1528" cy="55" r="3" fill="green" />
<polyline points="1603,69 1633,109" fill="none" stroke="blue" stroke-width="3" stroke-linecap="round" stroke-linejoin="round" />
<text x="1598" y="64" class="stroke-num">3</text>
<circle cx="1603" cy="69" r="3" fill="blue" />
<rect x="1720" y="20" width="320" height="320" fill="none" stroke="#eee" />
<text x="1725" y="335" class="label">か</text>
<polyline points="1770,123 1857,119 1897,159 1893,238 1859,276 1845,263" fill="none" stroke="red" stroke-width="3" stroke-linecap="round" stroke-linejoin="round" />
<text x="1765" y="118" class="stroke-num">1</text>
<circle cx="1770" cy="123" r="3" fill="red" />
<polyline points="1872,57 1792,200" fill="none" stroke="green" stroke-width="3" stroke-linecap="round" stroke-linejoin="round" />
<text x="1867" y="52" class="stroke-num">2</text>
<circle cx="1872" cy="57" r="3" fill="green" />
<polyline points="1936,99 1970,180" fill="none" stroke="blue" stroke-width="3" stroke-linecap="round" stroke-linejoin="round" />
<text x="1931" y="94" class="stroke-num">3</text>
<circle cx="1936" cy="99" r="3" fill="blue" />
<rect x="2060" y="20" width="320" height="320" fill="none" stroke="#eee" />
<text x="2065" y="335" class="label">き</text>
<polyline points="2137,98 2265,100" fill="none" stroke="red" stroke-width="3" stroke-linecap="round" stroke-linejoin="round" />
<text x="2132" y="93" class="stroke-num">1</text>
<circle cx="2137" cy="98" r="3" fill="red" />
<polyline points="2150,170 2281,178" fill="none" stroke="green" stroke-width="3" stroke-linecap="round" stroke-linejoin="round" />
<text x="2145" y="165" class="stroke-num">2</text>
<circle cx="2150" cy="170" r="3" fill="green" />
<polyline points="2189,47 2214,207" fill="none" stroke="blue" stroke-width="3" stroke-linecap="round" stroke-linejoin="round" />
<text x="2184" y="42" class="stroke-num">3</text>
<circle cx="2189" cy="47" r="3" fill="blue" />
<polyline points="2141,225 2164,267 2220,287" fill="none" stroke="orange" stroke-width="3" stroke-linecap="round" stroke-linejoin="round" />
<text x="2136" y="220" class="stroke-num">4</text>
<circle cx="2141" cy="225" r="3" fill="orange" />
<rect x="2400" y="20" width="320" height="320" fill="none" stroke="#eee" />
<text x="2405" y="335" class="label">く</text>
<polyline points="2591,63 2470,188 2590,289" fill="none" stroke="red" stroke-width="3" stroke-linecap="round" stroke-linejoin="round" />
<text x="2586" y="58" class="stroke-num">1</text>
<circle cx="2591" cy="63" r="3" fill="red" />
<rect x="2740" y="20" width="320" height="320" fill="none" stroke="#eee" />
<text x="2745" y="335" class="label">け</text>
<polyline points="2806,76 2786,271 2839,271" fill="none" stroke="red" stroke-width="3" stroke-linecap="round" stroke-linejoin="round" />
<text x="2801" y="71" class="stroke-num">1</text>
<circle cx="2806" cy="76" r="3" fill="red" />
<polyline points="2893,129 3041,118" fill="none" stroke="green" stroke-width="3" stroke-linecap="round" stroke-linejoin="round" />
<text x="2888" y="124" class="stroke-num">2</text>
<circle cx="2893" cy="129" r="3" fill="green" />
<polyline points="2958,47 2968,166 2919,271" fill="none" stroke="blue" stroke-width="3" stroke-linecap="round" stroke-linejoin="round" />
<text x="2953" y="42" class="stroke-num">3</text>
<circle cx="2958" cy="47" r="3" fill="blue" />
<rect x="3080" y="20" width="320" height="320" fill="none" stroke="#eee" />
<text x="3085" y="335" class="label">こ</text>
<polyline points="3136,103 3268,87 3312,102 3305,128" fill="none" stroke="red" stroke-width="3" stroke-linecap="round" stroke-linejoin="round" />
<text x="3131" y="98" class="stroke-num">1</text>
<circle cx="3136" cy="103" r="3" fill="red" />
<polyline points="3151,248 3211,271 3312,249" fill="none" stroke="green" stroke-width="3" stroke-linecap="round" stroke-linejoin="round" />
<text x="3146" y="243" class="stroke-num">2</text>
<circle cx="3151" cy="248" r="3" fill="green" />
<rect x="20" y="360" width="320" height="320" fill="none" stroke="#eee" />
<text x="25" y="675" class="label">さ</text>
<polyline points="87,449 274,441" fill="none" stroke="red" stroke-width="3" stroke-linecap="round" stroke-linejoin="round" />
<text x="82" y="444" class="stroke-num">1</text>
<circle cx="87" cy="449" r="3" fill="red" />
<polyline points="167,397 202,524" fill="none" stroke="green" stroke-width="3" stroke-linecap="round" stroke-linejoin="round" />
<text x="162" y="392" class="stroke-num">2</text>
<circle cx="167" cy="397" r="3" fill="green" />
<polyline points="108,527 143,579 198,604" fill="none" stroke="blue" stroke-width="3" stroke-linecap="round" stroke-linejoin="round" />
<text x="103" y="522" class="stroke-num">3</text>
<circle cx="108" cy="527" r="3" fill="blue" />
<rect x="360" y="360" width="320" height="320" fill="none" stroke="#eee" />
<text x="365" y="675" class="label">し</text>
<polyline points="440,396 445,587 543,622 588,568" fill="none" stroke="red" stroke-width="3" stroke-linecap="round" stroke-linejoin="round" />
<text x="435" y="391" class="stroke-num">1</text>
<circle cx="440" cy="396" r="3" fill="red" />
<rect x="700" y="360" width="320" height="320" fill="none" stroke="#eee" />
<text x="705" y="675" class="label">す</text>
<polyline points="758,459 934,452" fill="none" stroke="red" stroke-width="3" stroke-linecap="round" stroke-linejoin="round" />
<text x="753" y="454" class="stroke-num">1</text>
<circle cx="758" cy="459" r="3" fill="red" />
<polyline points="861,397 875,488 850,547 828,553 816,514 847,497 862,528 823,625" fill="none" stroke="green" stroke-width="3" stroke-linecap="round" stroke-linejoin="round" />
<text x="856" y="392" class="stroke-num">2</text>
<circle cx="861" cy="397" r="3" fill="green" />
<rect x="1040" y="360" width="320" height="320" fill="none" stroke="#eee" />
<text x="1045" y="675" class="label">せ</text>
<polyline points="1075,474 1295,457" fill="none" stroke="red" stroke-width="3" stroke-linecap="round" stroke-linejoin="round" />
<text x="1070" y="469" class="stroke-num">1</text>
<circle cx="1075" cy="474" r="3" fill="red" />
<polyline points="1254,406 1235,507" fill="none" stroke="green" stroke-width="3" stroke-linecap="round" stroke-linejoin="round" />
<text x="1249" y="401" class="stroke-num">2</text>
<circle cx="1254" cy="406" r="3" fill="green" />
<polyline points="1157,402 1128,462 1136,559 1173,585 1263,591" fill="none" stroke="blue" stroke-width="3" stroke-linecap="round" stroke-linejoin="round" />
<text x="1152" y="397" class="stroke-num">3</text>
<circle cx="1157" cy="402" r="3" fill="blue" />
<rect x="1380" y="360" width="320" height="320" fill="none" stroke="#eee" />
<text x="1385" y="675" class="label">そ</text>
<polyline points="1468,405 1567,414 1426,504 1619,489 1540,552 1549,632" fill="none" stroke="red" stroke-width="3" stroke-linecap="round" stroke-linejoin="round" />
<text x="1463" y="400" class="stroke-num">1</text>
<circle cx="1468" cy="405" r="3" fill="red" />
<rect x="1720" y="360" width="320" height="320" fill="none" stroke="#eee" />
<text x="1725" y="675" class="label">そ</text>
<polyline points="1786,391 1855,431" fill="none" stroke="red" stroke-width="3" stroke-linecap="round" stroke-linejoin="round" />
<text x="1781" y="386" class="stroke-num">1</text>
<circle cx="1786" cy="391" r="3" fill="red" />
<polyline points="1943,396 1812,448 1786,489 1793,514 1950,518 1874,524 1849,554 1866,606 1926,629" fill="none" stroke="green" stroke-width="3" stroke-linecap="round" stroke-linejoin="round" />
<text x="1938" y="391" class="stroke-num">2</text>
<circle cx="1943" cy="396" r="3" fill="green" />
<rect x="2060" y="360" width="320" height="320" fill="none" stroke="#eee" />
<text x="2065" y="675" class="label">た</text>
<polyline points="2114,455 2195,444" fill="none" stroke="red" stroke-width="3" stroke-linecap="round" stroke-linejoin="round" />
<text x="2109" y="450" class="stroke-num">1</text>
<circle cx="2114" cy="455" r="3" fill="red" />
<polyline points="2163,390 2150,511 2108,615" fill="none" stroke="green" stroke-width="3" stroke-linecap="round" stroke-linejoin="round" />
<text x="2158" y="385" class="stroke-num">2</text>
<circle cx="2163" cy="390" r="3" fill="green" />
<polyline points="2204,511 2238,493 2285,506" fill="none" stroke="blue" stroke-width="3" stroke-linecap="round" stroke-linejoin="round" />
<text x="2199" y="506" class="stroke-num">3</text>
<circle cx="2204" cy="511" r="3" fill="blue" />
<polyline points="2206,579 2288,592" fill="none" stroke="orange" stroke-width="3" stroke-linecap="round" stroke-linejoin="round" />
<text x="2201" y="574" class="stroke-num">4</text>
<circle cx="2206" cy="579" r="3" fill="orange" />
<rect x="2400" y="360" width="320" height="320" fill="none" stroke="#eee" />
<text x="2405" y="675" class="label">ち</text>
<polyline points="2463,461 2619,435" fill="none" stroke="red" stroke-width="3" stroke-linecap="round" stroke-linejoin="round" />
<text x="2458" y="456" class="stroke-num">1</text>
<circle cx="2463" cy="461" r="3" fill="red" />
<polyline points="2550,384 2501,534 2578,506 2611,575 2583,622 2521,622" fill="none" stroke="green" stroke-width="3" stroke-linecap="round" stroke-linejoin="round" />
<text x="2545" y="379" class="stroke-num">2</text>
<circle cx="2550" cy="384" r="3" fill="green" />
<rect x="2740" y="360" width="320" height="320" fill="none" stroke="#eee" />
<text x="2745" y="675" class="label">つ</text>
<polyline points="2794,508 2893,461 2965,468 2976,525 2918,570" fill="none" stroke="red" stroke-width="3" stroke-linecap="round" stroke-linejoin="round" />
<text x="2789" y="503" class="stroke-num">1</text>
<circle cx="2794" cy="508" r="3" fill="red" />
<rect x="3080" y="360" width="320" height="320" fill="none" stroke="#eee" />
<text x="3085" y="675" class="label">て</text>
<polyline points="3141,455 3306,436 3226,508 3228,585 3275,622" fill="none" stroke="red" stroke-width="3" stroke-linecap="round" stroke-linejoin="round" />
<text x="3136" y="450" class="stroke-num">1</text>
<circle cx="3141" cy="455" r="3" fill="red" />
<rect x="20" y="700" width="320" height="320" fill="none" stroke="#eee" />
<text x="25" y="1015" class="label">と</text>
<polyline points="93,782 138,835" fill="none" stroke="red" stroke-width="3" stroke-linecap="round" stroke-linejoin="round" />
<text x="88" y="777" class="stroke-num">1</text>
<circle cx="93" cy="782" r="3" fill="red" />
<polyline points="230,776 123,846 104,915 138,960 233,964" fill="none" stroke="green" stroke-width="3" stroke-linecap="round" stroke-linejoin="round" />
<text x="225" y="771" class="stroke-num">2</text>
<circle cx="230" cy="776" r="3" fill="green" />
<rect x="360" y="700" width="320" height="320" fill="none" stroke="#eee" />
<text x="365" y="1015" class="label">な</text>
<polyline points="397,814 517,788" fill="none" stroke="red" stroke-width="3" stroke-linecap="round" stroke-linejoin="round" />
<text x="392" y="809" class="stroke-num">1</text>
<circle cx="397" cy="814" r="3" fill="red" />
<polyline points="468,726 397,881" fill="none" stroke="green" stroke-width="3" stroke-linecap="round" stroke-linejoin="round" />
<text x="463" y="721" class="stroke-num">2</text>
<circle cx="468" cy="726" r="3" fill="green" />
<polyline points="553,758 616,836" fill="none" stroke="blue" stroke-width="3" stroke-linecap="round" stroke-linejoin="round" />
<text x="548" y="753" class="stroke-num">3</text>
<circle cx="553" cy="758" r="3" fill="blue" />
<polyline points="508,842 506,943 480,964 442,953 440,921 468,915 594,962" fill="none" stroke="orange" stroke-width="3" stroke-linecap="round" stroke-linejoin="round" />
<text x="503" y="837" class="stroke-num">4</text>
<circle cx="508" cy="842" r="3" fill="orange" />
<rect x="700" y="700" width="320" height="320" fill="none" stroke="#eee" />
<text x="705" y="1015" class="label">に</text>
<polyline points="767,775 765,951 791,930" fill="none" stroke="red" stroke-width="3" stroke-linecap="round" stroke-linejoin="round" />
<text x="762" y="770" class="stroke-num">1</text>
<circle cx="767" cy="775" r="3" fill="red" />
<polyline points="855,806 923,814" fill="none" stroke="green" stroke-width="3" stroke-linecap="round" stroke-linejoin="round" />
<text x="850" y="801" class="stroke-num">2</text>
<circle cx="855" cy="806" r="3" fill="green" />
<polyline points="859,919 885,936 943,925" fill="none" stroke="blue" stroke-width="3" stroke-linecap="round" stroke-linejoin="round" />
<text x="854" y="914" class="stroke-num">3</text>
<circle cx="859" cy="919" r="3" fill="blue" />
<rect x="1040" y="700" width="320" height="320" fill="none" stroke="#eee" />
<text x="1045" y="1015" class="label">ぬ</text>
<polyline points="1126,756 1137,853 1182,943" fill="none" stroke="red" stroke-width="3" stroke-linecap="round" stroke-linejoin="round" />
<text x="1121" y="751" class="stroke-num">1</text>
<circle cx="1126" cy="756" r="3" fill="red" />
<polyline points="1223,771 1158,917 1124,941 1101,930 1118,853 1197,816 1251,846 1265,883 1253,923 1210,923 1231,893 1289,949" fill="none" stroke="green" stroke-width="3" stroke-linecap="round" stroke-linejoin="round" />
<text x="1218" y="766" class="stroke-num">2</text>
<circle cx="1223" cy="771" r="3" fill="green" />
<rect x="1380" y="700" width="320" height="320" fill="none" stroke="#eee" />
<text x="1385" y="1015" class="label">ね</text>
<polyline points="1455,726 1455,968" fill="none" stroke="red" stroke-width="3" stroke-linecap="round" stroke-linejoin="round" />
<text x="1450" y="721" class="stroke-num">1</text>
<circle cx="1455" cy="726" r="3" fill="red" />
<polyline points="1419,791 1475,765 1389,943 1466,836 1558,778 1603,806 1595,893 1550,940 1509,923 1516,883 1554,876 1625,940" fill="none" stroke="green" stroke-width="3" stroke-linecap="round" stroke-linejoin="round" />
<text x="1414" y="786" class="stroke-num">2</text>
<circle cx="1419" cy="791" r="3" fill="green" />
<rect x="1720" y="700" width="320" height="320" fill="none" stroke="#eee" />
<text x="1725" y="1015" class="label">旧「ね」</text>
<polyline points="1804,752 1796,973" fill="none" stroke="red" stroke-width="3" stroke-linecap="round" stroke-linejoin="round" />
<text x="1799" y="747" class="stroke-num">1</text>
<circle cx="1804" cy="752" r="3" fill="red" />
<polyline points="1780,791 1825,776 1765,936 1838,806 1900,778 1937,816 1945,874 1913,936 1786,925 1916,896 1971,951" fill="none" stroke="green" stroke-width="3" stroke-linecap="round" stroke-linejoin="round" />
<text x="1775" y="786" class="stroke-num">2</text>
<circle cx="1780" cy="791" r="3" fill="green" />
<rect x="2060" y="700" width="320" height="320" fill="none" stroke="#eee" />
<text x="2065" y="1015" class="label">の</text>
<polyline points="2211,823 2178,955 2140,928 2157,821 2256,784 2305,865 2266,955" fill="none" stroke="red" stroke-width="3" stroke-linecap="round" stroke-linejoin="round" />
<text x="2206" y="818" class="stroke-num">1</text>
<circle cx="2211" cy="823" r="3" fill="red" />
<rect x="2400" y="700" width="320" height="320" fill="none" stroke="#eee" />
<text x="2405" y="1015" class="label">は</text>
<polyline points="2461,775 2463,968" fill="none" stroke="red" stroke-width="3" stroke-linecap="round" stroke-linejoin="round" />
<text x="2456" y="770" class="stroke-num">1</text>
<circle cx="2461" cy="775" r="3" fill="red" />
<polyline points="2536,835 2625,814" fill="none" stroke="green" stroke-width="3" stroke-linecap="round" stroke-linejoin="round" />
<text x="2531" y="830" class="stroke-num">2</text>
<circle cx="2536" cy="835" r="3" fill="green" />
<polyline points="2570,765 2570,910 2548,947 2521,932 2525,906 2561,904 2632,947" fill="none" stroke="blue" stroke-width="3" stroke-linecap="round" stroke-linejoin="round" />
<text x="2565" y="760" class="stroke-num">3</text>
<circle cx="2570" cy="765" r="3" fill="blue" />
<rect x="2740" y="700" width="320" height="320" fill="none" stroke="#eee" />
<text x="2745" y="1015" class="label">ひ</text>
<polyline points="2779,842 2861,788 2837,891 2871,968 2935,941 2965,820 3006,848" fill="none" stroke="red" stroke-width="3" stroke-linecap="round" stroke-linejoin="round" />
<text x="2774" y="837" class="stroke-num">1</text>
<circle cx="2779" cy="842" r="3" fill="red" />
<rect x="3080" y="700" width="320" height="320" fill="none" stroke="#eee" />
<text x="3085" y="1015" class="label">ふ</text>
<polyline points="3222,756 3273,788" fill="none" stroke="red" stroke-width="3" stroke-linecap="round" stroke-linejoin="round" />
<text x="3217" y="751" class="stroke-num">1</text>
<circle cx="3222" cy="756" r="3" fill="red" />
<polyline points="3218,823 3276,878 3267,930 3230,960" fill="none" stroke="green" stroke-width="3" stroke-linecap="round" stroke-linejoin="round" />
<text x="3213" y="818" class="stroke-num">2</text>
<circle cx="3218" cy="823" r="3" fill="green" />
<polyline points="3181,891 3140,951" fill="none" stroke="blue" stroke-width="3" stroke-linecap="round" stroke-linejoin="round" />
<text x="3176" y="886" class="stroke-num">3</text>
<circle cx="3181" cy="891" r="3" fill="blue" />
<polyline points="3318,891 3361,951" fill="none" stroke="orange" stroke-width="3" stroke-linecap="round" stroke-linejoin="round" />
<text x="3313" y="886" class="stroke-num">4</text>
<circle cx="3318" cy="891" r="3" fill="orange" />
<rect x="20" y="1040" width="320" height="320" fill="none" stroke="#eee" />
<text x="25" y="1355" class="label">へ</text>
<polyline points="72,1246 134,1143 276,1251" fill="none" stroke="red" stroke-width="3" stroke-linecap="round" stroke-linejoin="round" />
<text x="67" y="1241" class="stroke-num">1</text>
<circle cx="72" cy="1246" r="3" fill="red" />
<rect x="360" y="1040" width="320" height="320" fill="none" stroke="#eee" />
<text x="365" y="1355" class="label">ほ</text>
<polyline points="429,1111 429,1272 461,1255" fill="none" stroke="red" stroke-width="3" stroke-linecap="round" stroke-linejoin="round" />
<text x="424" y="1106" class="stroke-num">1</text>
<circle cx="429" cy="1111" r="3" fill="red" />
<polyline points="517,1124 586,1109" fill="none" stroke="green" stroke-width="3" stroke-linecap="round" stroke-linejoin="round" />
<text x="512" y="1119" class="stroke-num">2</text>
<circle cx="517" cy="1124" r="3" fill="green" />
<polyline points="504,1182 600,1169" fill="none" stroke="blue" stroke-width="3" stroke-linecap="round" stroke-linejoin="round" />
<text x="499" y="1177" class="stroke-num">3</text>
<circle cx="504" cy="1182" r="3" fill="blue" />
<polyline points="553,1128 549,1250 534,1268 513,1246 536,1220 613,1265" fill="none" stroke="orange" stroke-width="3" stroke-linecap="round" stroke-linejoin="round" />
<text x="548" y="1123" class="stroke-num">4</text>
<circle cx="553" cy="1128" r="3" fill="orange" />
<rect x="700" y="1040" width="320" height="320" fill="none" stroke="#eee" />
<text x="705" y="1355" class="label">ま</text>
<polyline points="791,1118 911,1105" fill="none" stroke="red" stroke-width="3" stroke-linecap="round" stroke-linejoin="round" />
<text x="786" y="1113" class="stroke-num">1</text>
<circle cx="791" cy="1118" r="3" fill="red" />
<polyline points="788,1169 904,1163" fill="none" stroke="green" stroke-width="3" stroke-linecap="round" stroke-linejoin="round" />
<text x="783" y="1164" class="stroke-num">2</text>
<circle cx="788" cy="1169" r="3" fill="green" />
<polyline points="846,1064 838,1244 803,1281 765,1265 773,1240 825,1233 902,1268" fill="none" stroke="blue" stroke-width="3" stroke-linecap="round" stroke-linejoin="round" />
<text x="841" y="1059" class="stroke-num">3</text>
<circle cx="846" cy="1064" r="3" fill="blue" />
<rect x="1040" y="1040" width="320" height="320" fill="none" stroke="#eee" />
<text x="1045" y="1355" class="label">み</text>
<polyline points="1105,1130 1150,1131 1169,1180 1158,1250 1111,1270 1103,1227 1139,1201 1287,1188" fill="none" stroke="red" stroke-width="3" stroke-linecap="round" stroke-linejoin="round" />
<text x="1100" y="1125" class="stroke-num">1</text>
<circle cx="1105" cy="1130" r="3" fill="red" />
<polyline points="1236,1116 1236,1257" fill="none" stroke="green" stroke-width="3" stroke-linecap="round" stroke-linejoin="round" />
<text x="1231" y="1111" class="stroke-num">2</text>
<circle cx="1236" cy="1116" r="3" fill="green" />
<rect x="1380" y="1040" width="320" height="320" fill="none" stroke="#eee" />
<text x="1385" y="1355" class="label">む</text>
<polyline points="1434,1141 1515,1124" fill="none" stroke="red" stroke-width="3" stroke-linecap="round" stroke-linejoin="round" />
<text x="1429" y="1136" class="stroke-num">1</text>
<circle cx="1434" cy="1141" r="3" fill="red" />
<polyline points="1485,1086 1481,1199 1468,1212 1453,1186 1486,1163 1492,1268 1565,1295 1616,1281 1618,1259" fill="none" stroke="green" stroke-width="3" stroke-linecap="round" stroke-linejoin="round" />
<text x="1480" y="1081" class="stroke-num">2</text>
<circle cx="1485" cy="1086" r="3" fill="green" />
<polyline points="1599,1137 1625,1188" fill="none" stroke="blue" stroke-width="3" stroke-linecap="round" stroke-linejoin="round" />
<text x="1594" y="1132" class="stroke-num">3</text>
<circle cx="1599" cy="1137" r="3" fill="blue" />
<rect x="1720" y="1040" width="320" height="320" fill="none" stroke="#eee" />
<text x="1725" y="1355" class="label">め</text>
<polyline points="1821,1105 1840,1227 1873,1283" fill="none" stroke="red" stroke-width="3" stroke-linecap="round" stroke-linejoin="round" />
<text x="1816" y="1100" class="stroke-num">1</text>
<circle cx="1821" cy="1105" r="3" fill="red" />
<polyline points="1901,1096 1856,1265 1819,1283 1785,1251 1795,1206 1896,1156 1960,1191 1943,1278" fill="none" stroke="green" stroke-width="3" stroke-linecap="round" stroke-linejoin="round" />
<text x="1896" y="1091" class="stroke-num">2</text>
<circle cx="1901" cy="1096" r="3" fill="green" />
<rect x="2060" y="1040" width="320" height="320" fill="none" stroke="#eee" />
<text x="2065" y="1355" class="label">も</text>
<polyline points="2133,1135 2277,1128" fill="none" stroke="red" stroke-width="3" stroke-linecap="round" stroke-linejoin="round" />
<text x="2128" y="1130" class="stroke-num">1</text>
<circle cx="2133" cy="1135" r="3" fill="red" />
<polyline points="2138,1199 2286,1188" fill="none" stroke="green" stroke-width="3" stroke-linecap="round" stroke-linejoin="round" />
<text x="2133" y="1194" class="stroke-num">2</text>
<circle cx="2138" cy="1199" r="3" fill="green" />
<polyline points="2221,1070 2196,1199 2208,1268 2275,1304 2311,1265" fill="none" stroke="blue" stroke-width="3" stroke-linecap="round" stroke-linejoin="round" />
<text x="2216" y="1065" class="stroke-num">3</text>
<circle cx="2221" cy="1070" r="3" fill="blue" />
<rect x="2400" y="1040" width="320" height="320" fill="none" stroke="#eee" />
<text x="2405" y="1355" class="label">や</text>
<polyline points="2467,1173 2525,1131 2610,1124 2638,1161 2600,1205" fill="none" stroke="red" stroke-width="3" stroke-linecap="round" stroke-linejoin="round" />
<text x="2462" y="1168" class="stroke-num">1</text>
<circle cx="2467" cy="1173" r="3" fill="red" />
<polyline points="2645,1077 2610,1115" fill="none" stroke="green" stroke-width="3" stroke-linecap="round" stroke-linejoin="round" />
<text x="2640" y="1072" class="stroke-num">2</text>
<circle cx="2645" cy="1077" r="3" fill="green" />
<polyline points="2506,1070 2563,1287" fill="none" stroke="blue" stroke-width="3" stroke-linecap="round" stroke-linejoin="round" />
<text x="2501" y="1065" class="stroke-num">3</text>
<circle cx="2506" cy="1070" r="3" fill="blue" />
<rect x="2740" y="1040" width="320" height="320" fill="none" stroke="#eee" />
<text x="2745" y="1355" class="label">ゆ</text>
<polyline points="2813,1118 2809,1276 2822,1201 2865,1141 2936,1124 2980,1161 2955,1231 2871,1240" fill="none" stroke="red" stroke-width="3" stroke-linecap="round" stroke-linejoin="round" />
<text x="2808" y="1113" class="stroke-num">1</text>
<circle cx="2813" cy="1118" r="3" fill="red" />
<polyline points="2901,1090 2921,1199 2890,1302" fill="none" stroke="green" stroke-width="3" stroke-linecap="round" stroke-linejoin="round" />
<text x="2896" y="1085" class="stroke-num">2</text>
<circle cx="2901" cy="1090" r="3" fill="green" />
<rect x="3080" y="1040" width="320" height="320" fill="none" stroke="#eee" />
<text x="3085" y="1355" class="label">よ</text>
<polyline points="3239,1131 3299,1124" fill="none" stroke="red" stroke-width="3" stroke-linecap="round" stroke-linejoin="round" />
<text x="3234" y="1126" class="stroke-num">1</text>
<circle cx="3239" cy="1131" r="3" fill="red" />
<polyline points="3224,1079 3222,1240 3200,1289 3173,1283 3164,1246 3188,1223 3271,1240 3320,1276" fill="none" stroke="green" stroke-width="3" stroke-linecap="round" stroke-linejoin="round" />
<text x="3219" y="1074" class="stroke-num">2</text>
<circle cx="3224" cy="1079" r="3" fill="green" />
<rect x="20" y="1380" width="320" height="320" fill="none" stroke="#eee" />
<text x="25" y="1695" class="label">ら</text>
<polyline points="155,1404 207,1443" fill="none" stroke="red" stroke-width="3" stroke-linecap="round" stroke-linejoin="round" />
<text x="150" y="1399" class="stroke-num">1</text>
<circle cx="155" cy="1404" r="3" fill="red" />
<polyline points="151,1458 147,1546 211,1546 231,1590 183,1635 147,1623" fill="none" stroke="green" stroke-width="3" stroke-linecap="round" stroke-linejoin="round" />
<text x="146" y="1453" class="stroke-num">2</text>
<circle cx="151" cy="1458" r="3" fill="green" />
<rect x="360" y="1380" width="320" height="320" fill="none" stroke="#eee" />
<text x="365" y="1695" class="label">り</text>
<polyline points="459,1443 455,1546 491,1545" fill="none" stroke="red" stroke-width="3" stroke-linecap="round" stroke-linejoin="round" />
<text x="454" y="1438" class="stroke-num">1</text>
<circle cx="459" cy="1443" r="3" fill="red" />
<polyline points="562,1436 568,1558 528,1653" fill="none" stroke="green" stroke-width="3" stroke-linecap="round" stroke-linejoin="round" />
<text x="557" y="1431" class="stroke-num">2</text>
<circle cx="562" cy="1436" r="3" fill="green" />
<rect x="700" y="1380" width="320" height="320" fill="none" stroke="#eee" />
<text x="705" y="1695" class="label">る</text>
<polyline points="799,1438 896,1423 776,1571 820,1518 874,1507 923,1554 917,1599 881,1642 829,1616 842,1586 870,1584 898,1618" fill="none" stroke="red" stroke-width="3" stroke-linecap="round" stroke-linejoin="round" />
<text x="794" y="1433" class="stroke-num">1</text>
<circle cx="799" cy="1438" r="3" fill="red" />
<rect x="1040" y="1380" width="320" height="320" fill="none" stroke="#eee" />
<text x="1045" y="1695" class="label">れ</text>
<polyline points="1137,1425 1124,1644" fill="none" stroke="red" stroke-width="3" stroke-linecap="round" stroke-linejoin="round" />
<text x="1132" y="1420" class="stroke-num">1</text>
<circle cx="1137" cy="1425" r="3" fill="red" />
<polyline points="1105,1490 1167,1468 1092,1623 1240,1456 1221,1584 1236,1616 1291,1610" fill="none" stroke="green" stroke-width="3" stroke-linecap="round" stroke-linejoin="round" />
<text x="1100" y="1485" class="stroke-num">2</text>
<circle cx="1105" cy="1490" r="3" fill="green" />
<rect x="1380" y="1380" width="320" height="320" fill="none" stroke="#eee" />
<text x="1385" y="1695" class="label">ろ</text>
<polyline points="1471,1449 1586,1423 1449,1558 1507,1513 1576,1522 1601,1560 1597,1608 1528,1636" fill="none" stroke="red" stroke-width="3" stroke-linecap="round" stroke-linejoin="round" />
<text x="1466" y="1444" class="stroke-num">1</text>
<circle cx="1471" cy="1449" r="3" fill="red" />
<rect x="1720" y="1380" width="320" height="320" fill="none" stroke="#eee" />
<text x="1725" y="1695" class="label">わ</text>
<polyline points="1808,1419 1808,1623" fill="none" stroke="red" stroke-width="3" stroke-linecap="round" stroke-linejoin="round" />
<text x="1803" y="1414" class="stroke-num">1</text>
<circle cx="1808" cy="1419" r="3" fill="red" />
<polyline points="1781,1477 1838,1458 1780,1605 1877,1468 1960,1464 1971,1573 1911,1605" fill="none" stroke="green" stroke-width="3" stroke-linecap="round" stroke-linejoin="round" />
<text x="1776" y="1472" class="stroke-num">2</text>
<circle cx="1781" cy="1477" r="3" fill="green" />
<rect x="2060" y="1380" width="320" height="320" fill="none" stroke="#eee" />
<text x="2065" y="1695" class="label">を</text>
<polyline points="2140,1470 2281,1443" fill="none" stroke="red" stroke-width="3" stroke-linecap="round" stroke-linejoin="round" />
<text x="2135" y="1465" class="stroke-num">1</text>
<circle cx="2140" cy="1470" r="3" fill="red" />
<polyline points="2210,1410 2178,1522 2210,1515 2240,1545 2230,1608" fill="none" stroke="green" stroke-width="3" stroke-linecap="round" stroke-linejoin="round" />
<text x="2205" y="1405" class="stroke-num">2</text>
<circle cx="2210" cy="1410" r="3" fill="green" />
<polyline points="2273,1522 2202,1546 2176,1612 2204,1653 2277,1653" fill="none" stroke="blue" stroke-width="3" stroke-linecap="round" stroke-linejoin="round" />
<text x="2268" y="1517" class="stroke-num">3</text>
<circle cx="2273" cy="1522" r="3" fill="blue" />
<rect x="2400" y="1380" width="320" height="320" fill="none" stroke="#eee" />
<text x="2405" y="1695" class="label">ん</text>
<polyline points="2596,1417 2452,1631 2535,1526 2580,1635 2625,1635 2653,1605" fill="none" stroke="red" stroke-width="3" stroke-linecap="round" stroke-linejoin="round" />
<text x="2591" y="1412" class="stroke-num">1</text>
<circle cx="2596" cy="1417" r="3" fill="red" />
</svg>